<?xml version="1.0" encoding="UTF-8"?><svg id="Layer_1" xmlns="http://www.w3.org/2000/svg" width="170" height="170" viewBox="0 0 170 170"><g id="new"><path d="M77.89,10.24c-5.75,5.44-10.8,11.4-13.65,17.98-2.85,6.38-3.61,13.49-2.17,20.33,1.14,6.55,4.37,12.55,9.21,17.1,4.79,4.76,11.28,8.68,18.14,12.88,6.82,4.25,14.32,8.85,20.52,15.86,6.23,7.1,9.89,16.08,10.41,25.51.63,9.06-1.61,18.08-6.4,25.79-4.76,7.52-11.51,13.05-18.6,17.27-.98.58-2.24.26-2.83-.72-.52-.87-.33-1.98.44-2.63,5.98-5.1,11.14-11.03,14.18-17.68,3-6.53,3.9-13.83,2.58-20.89-1.04-6.75-4.35-12.95-9.38-17.57-4.94-4.73-11.44-8.5-18.37-12.54-6.88-4.1-14.46-8.42-20.99-15.22-3.3-3.49-5.99-7.5-7.97-11.88-1.88-4.37-3.01-9.01-3.37-13.75-.64-9.15,1.52-18.83,6.62-26.32,4.93-7.13,11.57-12.9,19.32-16.79.98-.52,2.2-.14,2.72.84.43.81.26,1.8-.41,2.42Z"/><path d="M94.26,6.91c5.41,2.55,10.31,6.07,14.46,10.37,2.19,2.35,4.12,4.92,5.76,7.68,1.67,2.94,2.97,6.07,3.87,9.32.86,3.34,1.31,6.77,1.35,10.21-.07,3.42-.91,20-10.06,27.98-2.41,1.69-5.72,1.11-7.41-1.3,0-.01-.02-.02-.03-.04-1.13-1.75-1.24-3.98-.27-5.82l.12-.22c2.45-4.63,12.66-22.62,1.01-42.48-3.13-4.55-6.69-8.79-10.63-12.66h-.01c-.69-.74-.72-1.87-.08-2.63.47-.57,1.27-.74,1.93-.43Z"/><path d="M75.79,163.1c-5.41-2.55-10.31-6.07-14.46-10.37-2.19-2.35-4.12-4.92-5.76-7.68-1.67-2.94-2.97-6.07-3.87-9.32-.86-3.34-1.31-6.77-1.34-10.22.07-3.42.91-20,10.06-27.98,2.41-1.69,5.72-1.11,7.41,1.3,0,.01.02.02.03.04,1.14,1.75,1.24,3.98.27,5.82l-.12.22c-2.45,4.63-12.66,22.62-1.01,42.48,3.13,4.55,6.69,8.79,10.63,12.66h.01c.69.74.72,1.87.08,2.63-.47.57-1.27.74-1.93.43h0Z"/></g></svg>